<?xml version="1.0" encoding="utf-8"?>
<!-- Generator: Adobe Illustrator 24.1.2, SVG Export Plug-In . SVG Version: 6.00 Build 0)  -->
<svg version="1.1" id="Layer_3" xmlns="http://www.w3.org/2000/svg" xmlns:xlink="http://www.w3.org/1999/xlink" x="0px" y="0px"
	 viewBox="0 0 540 540" style="enable-background:new 0 0 540 540;" xml:space="preserve">
<g>
	<path d="M197.82,442.51c22.03-11.02,28.67-22.46,25.72-44.6c12.76,1.48,24.23-1.28,33.32-10.8c9.14-9.57,11.74-21,9.25-33.18
		c6.35-0.86,12.73-0.82,18.51-2.65c25.66-8.14,33.4-40.09,14.36-59.14c-11.99-12-24.48-23.51-36.78-35.2
		c-32.6-31.01-65.22-62-97.83-93c-4.28-4.07-8.69-8.02-12.82-12.24c-9.87-10.06-10.04-25.64-0.54-35.61
		c9.46-9.93,25.18-10.67,35.58-1.1c15.57,14.33,30.81,29.02,46.18,43.57c22.43,21.23,44.83,42.5,67.28,63.71
		c6.14,5.8,12.94,10.63,20.82,13.88c10.74,4.42,20.69,3.16,29.21-4.71c4.28-3.96,8.12-8.63,11.27-13.54
		c7.4-11.54,13.95-23.63,21.44-35.11c10.11-15.5,30.62-18.42,45.08-6.91c11.91,9.49,14.72,26.38,6.44,40.26
		c-11.71,19.64-23.58,39.19-35.4,58.77c-5.81,9.63-11.56,19.29-17.5,28.84c-1.61,2.57-1.6,4.62-0.25,7.34
		c5.51,11.08,10.69,22.33,16.1,33.46c17.84,36.74,4.25,77.53-32.26,95.56c-24.76,12.22-49.66,24.16-74.71,35.79
		c-32.54,15.1-70.89,3.14-89.31-27.47C199.83,446.5,198.87,444.47,197.82,442.51z"/>
	<path d="M159.17,266.75c3.96,0.07,9.8,2.13,14.59,6.62c25.01,23.49,50.06,46.94,74.9,70.6c10.15,9.66,10.31,25.55,0.89,35.57
		c-9.74,10.36-25.43,11.12-35.95,1.3c-21.88-20.41-43.57-41.04-65.34-61.57c-3.05-2.88-6.2-5.64-9.18-8.59
		c-7.7-7.62-9.94-18.63-5.89-28.46C137.02,272.9,146.29,266.77,159.17,266.75z"/>
	<path d="M298.84,320.64c-0.25,7.11-4.94,15.25-14.68,19.69c-9.43,4.29-18.94,3.44-26.78-3.49c-11.7-10.35-22.83-21.34-34.19-32.08
		c-13.58-12.83-27.17-25.64-40.69-38.52c-7.02-6.68-9.94-14.87-7.75-24.4c4.54-19.77,27.58-26.62,42.67-12.71
		c9.39,8.65,18.56,17.55,27.83,26.33c14.12,13.36,28.17,26.8,42.39,40.06C293.98,301.43,298.97,307.88,298.84,320.64z"/>
	<path d="M126.26,322.08c6.85-0.08,12.87,3.24,18.17,8.27c16.84,16.01,33.7,32,50.56,47.98c3.45,3.28,7,6.46,10.4,9.8
		c10.81,10.63,11.32,26.53,1.24,36.82c-9.95,10.16-25.65,10.22-36.45,0.03c-19.81-18.69-39.5-37.51-59.38-56.12
		c-7.69-7.2-12.57-15.26-10.38-26.23C102.87,330.24,112.99,322.01,126.26,322.08z"/>
	<path d="M358.49,145.29c-5.17-0.47-8.38-2.25-10.19-6.04c-1.94-4.04-1.2-7.83,1.64-11.15c1.1-1.28,2.55-2.28,3.92-3.3
		c9.05-6.65,18.09-13.32,27.21-19.87c5.53-3.97,11.68-3.25,15.16,1.53c3.59,4.95,2.55,10.82-2.95,14.93
		c-9.46,7.06-18.99,14.03-28.6,20.88C362.6,143.77,360.02,144.57,358.49,145.29z"/>
	<path d="M273.5,113.71c0,5.21-2.57,9.11-6.23,10.59c-3.85,1.56-9.02,0.8-11.53-2.53c-8.01-10.63-15.93-21.35-23.48-32.31
		c-3.2-4.65-1.49-10.61,2.95-13.6c4.39-2.96,10.44-2.22,13.81,2.26c7.66,10.18,15.12,20.52,22.52,30.9
		C272.69,110.63,273.12,112.78,273.5,113.71z"/>
	<path d="M331.26,121.36c-7.61-0.03-12.05-6.91-9.17-14.57c1.6-4.26,3.65-8.36,5.49-12.53c3.15-7.12,6.16-14.31,9.47-21.35
		c2.55-5.44,7.58-7.63,12.67-5.93c5.61,1.87,8.69,7.49,6.3,13.31c-4.98,12.12-10.44,24.05-15.88,35.98
		C338.49,119.9,335.18,121.34,331.26,121.36z"/>
	<path d="M306.87,101.79c0.16,7.36-3.34,11.82-9.12,12.37c-5.66,0.54-10.48-3.45-11.22-9.76c-1.39-11.91-2.65-23.83-3.68-35.77
		c-0.22-2.52,0.18-5.44,1.34-7.63c2.03-3.86,5.81-5.5,10.16-4.73c4.53,0.81,7.69,3.53,8.32,8.23c1.16,8.67,2.04,17.38,3.02,26.08
		C306.14,94.55,306.53,98.53,306.87,101.79z"/>
</g>
</svg>
