<?xml version="1.0" encoding="utf-8"?>
<!-- Generator: Adobe Illustrator 24.1.2, SVG Export Plug-In . SVG Version: 6.00 Build 0)  -->
<svg version="1.1" xmlns="http://www.w3.org/2000/svg" xmlns:xlink="http://www.w3.org/1999/xlink" x="0px" y="0px"
	 viewBox="0 0 540 540" style="enable-background:new 0 0 540 540;" xml:space="preserve">
<style type="text/css">
	.st0{fill:none;stroke:#000000;stroke-width:4.05;stroke-linecap:round;stroke-miterlimit:10;}
	.st1{fill:none;stroke:#000000;stroke-width:3.078;stroke-linecap:round;stroke-miterlimit:10;}
	.st2{fill:none;stroke:#000000;stroke-width:2.4932;stroke-linecap:round;stroke-miterlimit:10;}
	.st3{fill:none;stroke:#FF0000;stroke-width:28.35;stroke-linecap:round;stroke-miterlimit:10;}
</style>
<g id="Layer_1">
	<g>
		<circle cx="270.01" cy="270" r="81"/>
	</g>
	<g>
		<g>
			<line class="st0" x1="238.4" y1="111.11" x2="301.61" y2="428.89"/>
			<g>
				<path d="M223.32,114.11c-1.66-8.33,3.75-16.43,12.08-18.08c8.33-1.66,16.43,3.75,18.08,12.08c1.66,8.33-3.75,16.43-12.08,18.08
					C233.07,127.85,224.97,122.44,223.32,114.11z"/>
			</g>
			<g>
				<path d="M286.68,431.86c1.64,8.25,9.66,13.6,17.91,11.96c8.25-1.64,13.6-9.66,11.96-17.91c-1.64-8.25-9.66-13.6-17.91-11.96
					C290.39,415.59,285.04,423.61,286.68,431.86z"/>
			</g>
		</g>
	</g>
	<g>
		<g>
			<line class="st0" x1="135.31" y1="180" x2="404.7" y2="360"/>
			<g>
				<path d="M126.76,192.79c-7.06-4.72-8.96-14.27-4.24-21.33c4.72-7.06,14.27-8.96,21.33-4.24c7.06,4.72,8.96,14.27,4.24,21.33
					C143.38,195.6,133.82,197.5,126.76,192.79z"/>
			</g>
			<g>
				<ellipse transform="matrix(0.9964 -0.0849 0.0849 0.9964 -29.1039 35.6603)" cx="404.7" cy="360" rx="15.23" ry="15.23"/>
			</g>
		</g>
	</g>
	<g>
		<g>
			<line class="st0" x1="111.12" y1="301.6" x2="428.89" y2="238.4"/>
			<g>
				<path d="M114.12,316.69c-8.33,1.66-16.43-3.75-18.08-12.08c-1.66-8.33,3.75-16.43,12.08-18.08c8.33-1.66,16.43,3.75,18.08,12.08
					C127.86,306.93,122.45,315.03,114.12,316.69z"/>
			</g>
			<g>
				<ellipse transform="matrix(0.6062 -0.7953 0.7953 0.6062 -20.7036 434.9773)" cx="428.89" cy="238.4" rx="15.23" ry="15.23"/>
			</g>
		</g>
	</g>
	<g>
		<g>
			<line class="st0" x1="180" y1="404.7" x2="360.01" y2="135.3"/>
			<g>
				<path d="M192.79,413.24c-4.72,7.06-14.27,8.96-21.33,4.24c-7.06-4.72-8.96-14.27-4.24-21.33c4.72-7.06,14.27-8.96,21.33-4.24
					C195.61,396.63,197.51,406.18,192.79,413.24z"/>
			</g>
			<g>
				<path d="M372.67,143.76c4.67-6.99,2.79-16.45-4.2-21.12c-6.99-4.67-16.45-2.79-21.12,4.2c-4.67,6.99-2.79,16.45,4.2,21.12
					C358.54,152.63,368,150.75,372.67,143.76z"/>
			</g>
		</g>
	</g>
	<g>
		<g>
			<line class="st1" x1="201.6" y1="167.63" x2="338.41" y2="372.37"/>
			<g>
				<path d="M191.89,174.12c-3.59-5.37-2.14-12.63,3.22-16.21c5.37-3.59,12.63-2.14,16.21,3.22c3.59,5.37,2.14,12.63-3.22,16.21
					C202.73,180.93,195.47,179.49,191.89,174.12z"/>
			</g>
			<g>
				<path d="M328.79,378.8c3.55,5.31,10.74,6.74,16.05,3.19c5.31-3.55,6.74-10.74,3.19-16.05c-3.55-5.31-10.74-6.74-16.05-3.19
					S325.24,373.49,328.79,378.8z"/>
			</g>
		</g>
	</g>
	<g>
		<g>
			<line class="st1" x1="149.25" y1="245.98" x2="390.76" y2="294.02"/>
			<g>
				<path d="M146.97,257.44c-6.33-1.26-10.44-7.41-9.18-13.74c1.26-6.33,7.41-10.44,13.74-9.18c6.33,1.26,10.44,7.41,9.18,13.74
					C159.46,254.59,153.3,258.7,146.97,257.44z"/>
			</g>
			<g>
				<path d="M388.5,305.37c6.27,1.25,12.36-2.82,13.61-9.09c1.25-6.27-2.82-12.36-9.09-13.61c-6.27-1.25-12.36,2.82-13.61,9.09
					S382.23,304.12,388.5,305.37z"/>
			</g>
		</g>
	</g>
	<g>
		<g>
			<line class="st1" x1="167.64" y1="338.4" x2="372.38" y2="201.6"/>
			<g>
				<path d="M174.13,348.12c-5.37,3.59-12.63,2.14-16.21-3.22c-3.59-5.37-2.14-12.63,3.22-16.21c5.37-3.59,12.63-2.14,16.21,3.22
					C180.94,337.27,179.5,344.53,174.13,348.12z"/>
			</g>
			<g>
				<path d="M378.81,211.22c5.31-3.55,6.74-10.74,3.19-16.05c-3.55-5.31-10.74-6.74-16.05-3.19c-5.31,3.55-6.74,10.74-3.19,16.05
					C366.3,213.34,373.49,214.77,378.81,211.22z"/>
			</g>
		</g>
	</g>
	<g>
		<g>
			<line class="st1" x1="245.99" y1="390.75" x2="294.03" y2="149.25"/>
			<g>
				<path d="M257.45,393.03c-1.26,6.33-7.41,10.44-13.74,9.18c-6.33-1.26-10.44-7.41-9.18-13.74c1.26-6.33,7.41-10.44,13.74-9.18
					C254.6,380.55,258.71,386.7,257.45,393.03z"/>
			</g>
			<g>
				<path d="M305.38,151.5c1.25-6.27-2.82-12.36-9.09-13.61c-6.27-1.25-12.36,2.82-13.61,9.09c-1.25,6.27,2.82,12.36,9.09,13.61
					C298.04,161.84,304.13,157.77,305.38,151.5z"/>
			</g>
		</g>
	</g>
	<line class="st2" x1="199.49" y1="199.48" x2="340.52" y2="340.52"/>
	<line class="st2" x1="170.28" y1="270" x2="369.73" y2="270"/>
	<line class="st2" x1="199.49" y1="340.52" x2="340.52" y2="199.48"/>
	<line class="st2" x1="270.01" y1="369.73" x2="270.01" y2="170.27"/>
	<line class="st2" x1="177.87" y1="231.84" x2="362.14" y2="308.16"/>
	<line class="st2" x1="177.87" y1="308.16" x2="362.14" y2="231.84"/>
	<line class="st2" x1="231.84" y1="362.14" x2="308.17" y2="177.86"/>
	<line class="st2" x1="308.17" y1="362.14" x2="231.84" y2="177.86"/>
</g>
<g id="Layer_2">
	<g>
		<circle class="st3" cx="270.03" cy="270" r="199.61"/>
		<line class="st3" x1="128.89" y1="128.86" x2="411.17" y2="411.14"/>
	</g>
</g>
</svg>
