<?xml version="1.0" encoding="utf-8"?>
<!-- Generator: Adobe Illustrator 24.1.2, SVG Export Plug-In . SVG Version: 6.00 Build 0)  -->
<svg version="1.1" id="Layer_2" xmlns="http://www.w3.org/2000/svg" xmlns:xlink="http://www.w3.org/1999/xlink" x="0px" y="0px"
	 viewBox="0 0 540 540" style="enable-background:new 0 0 540 540;" xml:space="preserve">
<style type="text/css">
	.st0{fill:#CBEBFB;}
	.st1{fill:#FFFFFF;stroke:#7768AF;stroke-width:4.56;stroke-miterlimit:10;}
	.st2{fill:#FFFFFF;stroke:#7768AF;stroke-width:3.04;stroke-miterlimit:10;}
	.st3{fill:#FFFFFF;stroke:#009245;stroke-width:3.04;stroke-miterlimit:10;}
	.st4{fill:#FFFFFF;stroke:#009245;stroke-width:4.56;stroke-linecap:round;stroke-miterlimit:10;}
	.st5{fill:#FFFFFF;stroke:#29ABE2;stroke-width:5.7912;stroke-linecap:round;stroke-miterlimit:10;}
	.st6{fill:#CBEBFB;stroke:#003280;stroke-width:7.6;stroke-miterlimit:10;}
	.st7{clip-path:url(#SVGID_2_);fill:#7768AF;}
	.st8{fill:#FFFFFF;stroke:#003280;stroke-width:7.6;stroke-miterlimit:10;}
</style>
<g>
	<path class="st0" d="M146.85,81.31H79.3c-7.56,0-13.74-6.19-13.74-13.74v0c0-7.56,6.19-13.74,13.74-13.74h67.55
		c7.56,0,13.74,6.19,13.74,13.74v0C160.59,75.12,154.41,81.31,146.85,81.31z"/>
	<path class="st0" d="M121.98,112.73h74.74c8.64,0,15.71-7.07,15.71-15.71v0c0-8.64-7.07-15.71-15.71-15.71h-74.74
		c-8.64,0-15.71,7.07-15.71,15.71v0C106.27,105.66,113.34,112.73,121.98,112.73z"/>
	<path class="st0" d="M159.02,147.29H94.62c-9.5,0-17.28-7.78-17.28-17.28v0c0-9.5,7.78-17.28,17.28-17.28h64.41
		c9.5,0,17.28,7.78,17.28,17.28v0C176.3,139.51,168.52,147.29,159.02,147.29z"/>
	<path class="st0" d="M470.05,166.92h-74.62c-7.34,0-13.35-6.01-13.35-13.35v0c0-7.34,6.01-13.35,13.35-13.35h74.62
		c7.34,0,13.35,6.01,13.35,13.35v0C483.4,160.91,477.39,166.92,470.05,166.92z"/>
	<path class="st0" d="M431.96,199.12h-62.83c-8.86,0-16.1-7.25-16.1-16.1v0c0-8.86,7.25-16.1,16.1-16.1h62.83
		c8.86,0,16.1,7.25,16.1,16.1v0C448.06,191.88,440.81,199.12,431.96,199.12z"/>
	<path class="st0" d="M417.03,232.11h95.43c9.07,0,16.49-7.42,16.49-16.49v0c0-9.07-7.42-16.49-16.49-16.49h-95.43
		c-9.07,0-16.49,7.42-16.49,16.49v0C400.54,224.69,407.96,232.11,417.03,232.11z"/>
	<path class="st0" d="M455.91,261.96h34.56c8.21,0,14.92-6.72,14.92-14.92v0c0-8.21-6.72-14.92-14.92-14.92h-34.56
		c-8.21,0-14.92,6.72-14.92,14.92v0C440.99,255.24,447.7,261.96,455.91,261.96z"/>
</g>
<circle class="st1" cx="510.11" cy="357.78" r="14.14"/>
<circle class="st1" cx="32.57" cy="271.13" r="11.78"/>
<circle class="st2" cx="436.28" cy="396.27" r="4.71"/>
<circle class="st2" cx="397" cy="106.44" r="8.64"/>
<circle class="st2" cx="341.24" cy="103.3" r="7.85"/>
<circle class="st3" cx="247.77" cy="71.88" r="9.43"/>
<g>
	<line class="st4" x1="442.56" y1="302.8" x2="442.56" y2="324.01"/>
	<line class="st4" x1="431.96" y1="313.4" x2="453.16" y2="313.4"/>
</g>
<g>
	<line class="st4" x1="267.41" y1="93.88" x2="267.41" y2="115.08"/>
	<line class="st4" x1="256.81" y1="104.48" x2="278.01" y2="104.48"/>
</g>
<g>
	<line class="st4" x1="440.2" y1="345.21" x2="440.2" y2="366.42"/>
	<line class="st4" x1="429.6" y1="355.82" x2="450.81" y2="355.82"/>
</g>
<g>
	<line class="st4" x1="46.7" y1="342.86" x2="46.7" y2="364.06"/>
	<line class="st4" x1="36.1" y1="353.46" x2="57.31" y2="353.46"/>
</g>
<g>
	<line class="st5" x1="369.51" y1="51.74" x2="369.51" y2="78.68"/>
	<line class="st5" x1="356.05" y1="65.21" x2="382.98" y2="65.21"/>
</g>
<path class="st6" d="M261.91,509.37c103.68-65.19,158.66-179.08,155.51-314.96c-57.34,1.56-126.45-25.89-155.51-54.19
	c-29.06,28.31-98.18,55.75-155.51,54.19C103.26,330.29,158.23,444.18,261.91,509.37z"/>
<g>
	<defs>
		<path id="SVGID_1_" d="M261.91,470.84c-38.11-27.76-68.05-63.5-89.16-106.51c-20.44-41.64-31.88-88.51-34.15-139.67
			c43.46-5.25,90.32-21.99,123.31-43.89c32.98,21.9,79.84,38.64,123.31,43.89c-2.27,51.16-13.71,98.04-34.15,139.67
			C329.96,407.34,300.02,443.08,261.91,470.84z"/>
	</defs>
	<use xlink:href="#SVGID_1_"  style="overflow:visible;fill:#8F7AB8;"/>
	<clipPath id="SVGID_2_">
		<use xlink:href="#SVGID_1_"  style="overflow:visible;"/>
	</clipPath>
	<rect x="261.91" y="144.93" class="st7" width="159.44" height="349.51"/>
	<use xlink:href="#SVGID_1_"  style="overflow:visible;fill:none;stroke:#003280;stroke-width:7.6;stroke-miterlimit:10;"/>
</g>
<polygon class="st8" points="198.29,319.29 224.21,294.16 261.91,329.51 337.31,258.03 353.81,276.88 264.27,371.13 244.63,372.7 
	"/>
</svg>
