<?xml version="1.0" encoding="UTF-8"?>
<svg enable-background="new 0 0 120 90" version="1.1" viewBox="0 0 120 90" xml:space="preserve" xmlns="http://www.w3.org/2000/svg">
<style type="text/css">
	.st0{fill:#ffffff;}
</style>
	<path class="st0" d="m45.46 52.29h29.75l7.44-12.88-7.44-12.88 7.44-12.88h-14.88l-7.44 12.88 7.44 12.88h-14.87l7.44-12.88-7.44-12.88h-14.88l7.44 12.88-7.44 12.88 7.44 12.88zm16.32-25.76l5.99-10.38 13.43 23.26-5.99 10.38-13.43-23.26zm-15.6-1.26l-5.99-10.37h11.98l-0.65 1.13-5.34 9.24z"/>
	<path class="st0" d="m26.43 65.08l-4.39 10.17h-4.4v-10.17h-12.91v2.49h3.64v10.28h2.81v-10.28h3.64v10.28h9.19l1.06-2.7h4.96l1.1 2.7h3.17l-5.55-12.76h-2.32zm-0.46 7.68l1.55-3.97 1.57 3.97h-3.12z"/>
	<path class="st0" d="m43.97 72.87h2.29v2.07c-0.26 0.14-0.62 0.29-1.06 0.42-0.44 0.14-0.97 0.21-1.59 0.21-0.6 0-1.14-0.1-1.63-0.31-0.49-0.2-0.9-0.49-1.25-0.86s-0.62-0.8-0.8-1.3c-0.19-0.5-0.28-1.05-0.28-1.65 0-0.59 0.09-1.14 0.28-1.64s0.45-0.94 0.8-1.31 0.77-0.65 1.25-0.86c0.49-0.2 1.03-0.31 1.63-0.31 0.72 0 1.32 0.1 1.8 0.31 0.48 0.2 0.91 0.5 1.3 0.9l1.98-2.16c-0.65-0.6-1.4-1.02-2.26-1.27s-1.8-0.37-2.82-0.37c-1 0-1.92 0.16-2.76 0.47s-1.57 0.76-2.18 1.34-1.09 1.29-1.43 2.12-0.51 1.75-0.51 2.78c0 1.02 0.17 1.95 0.51 2.78s0.82 1.54 1.43 2.12 1.34 1.03 2.18 1.34 1.76 0.47 2.76 0.47c0.94 0 1.86-0.1 2.76-0.29s1.77-0.5 2.6-0.94v-6.67h-4.99v2.61z"/>
	<path class="st0" d="m89.19 69.84h-5.46v-4.76h-2.81v2.45c-0.05-0.16-0.12-0.32-0.19-0.46-0.26-0.5-0.61-0.9-1.05-1.19s-0.95-0.5-1.54-0.62-1.21-0.18-1.87-0.18h-4.74v11.52l-5.01-11.52h-2.33l-4.99 11.53-2.5-4.15c0.9-0.17 1.59-0.57 2.05-1.2 0.47-0.63 0.7-1.4 0.7-2.3 0-0.75-0.13-1.37-0.39-1.87s-0.61-0.9-1.05-1.19-0.95-0.5-1.53-0.63-1.2-0.19-1.85-0.19h-4.94v12.76h2.81v-5.1h1.39l2.67 5.1h5.19l1.06-2.7h4.96l1.1 2.7h5.44v-4.98h2.06c0.67 0 1.3-0.06 1.87-0.19 0.58-0.13 1.08-0.34 1.5-0.64s0.75-0.7 0.99-1.21c0.06-0.13 0.12-0.27 0.16-0.42v7.43h2.81v-5.52h5.46v5.52h2.84v-12.75h-2.81v4.76zm-32.88-0.09c-0.15 0.19-0.34 0.33-0.57 0.42s-0.48 0.14-0.77 0.16c-0.28 0.02-0.55 0.03-0.8 0.03h-1.66v-2.9h1.84c0.25 0 0.51 0.02 0.78 0.05 0.26 0.04 0.5 0.11 0.7 0.21s0.37 0.25 0.5 0.44 0.2 0.45 0.2 0.78c0.01 0.35-0.07 0.62-0.22 0.81zm7.4 3.01l1.55-3.97 1.57 3.97h-3.12zm14.31-3.06c-0.11 0.2-0.26 0.35-0.45 0.47-0.19 0.11-0.4 0.2-0.63 0.24-0.23 0.05-0.48 0.07-0.73 0.07h-1.87v-3.03h1.44c0.26 0 0.54 0.02 0.83 0.05s0.55 0.1 0.78 0.21 0.43 0.26 0.58 0.46 0.23 0.46 0.23 0.78c-0.01 0.31-0.07 0.56-0.18 0.75z"/>
	<path class="st0" d="m114.84 72.18c-0.29-0.44-0.65-0.8-1.09-1.06s-0.91-0.47-1.42-0.61c-0.5-0.14-0.98-0.29-1.41-0.43-0.44-0.14-0.8-0.32-1.09-0.52s-0.43-0.5-0.43-0.88c0-0.24 0.06-0.44 0.18-0.61s0.28-0.3 0.47-0.41c0.19-0.1 0.4-0.18 0.61-0.23 0.22-0.05 0.43-0.07 0.63-0.07 0.35 0 0.72 0.07 1.11 0.21s0.7 0.35 0.93 0.64l1.93-2.11c-0.54-0.48-1.15-0.82-1.82-1.03-0.67-0.2-1.37-0.31-2.09-0.31-0.62 0-1.23 0.09-1.82 0.26s-1.11 0.44-1.56 0.78c-0.45 0.35-0.81 0.78-1.08 1.3s-0.41 1.12-0.41 1.8c0 0.71 0.15 1.28 0.44 1.71s0.66 0.78 1.11 1.05c0.44 0.26 0.93 0.47 1.44 0.63 0.52 0.16 1 0.31 1.44 0.47s0.81 0.35 1.11 0.57c0.29 0.22 0.44 0.53 0.44 0.91 0 0.23-0.06 0.43-0.17 0.59-0.11 0.17-0.26 0.31-0.45 0.41-0.19 0.11-0.4 0.19-0.63 0.24s-0.47 0.08-0.69 0.08c-0.47 0-0.92-0.11-1.36-0.32s-0.8-0.51-1.09-0.89l-1.27 1.39-2.08-1.56c-0.29 0.43-0.66 0.77-1.1 1.01s-0.96 0.36-1.53 0.36c-0.5 0-0.98-0.1-1.42-0.31-0.44-0.2-0.82-0.49-1.14-0.86s-0.58-0.8-0.77-1.3-0.28-1.05-0.28-1.65c0-0.59 0.09-1.14 0.28-1.64s0.44-0.94 0.78-1.31c0.33-0.37 0.72-0.65 1.17-0.86 0.45-0.2 0.94-0.31 1.47-0.31s0.99 0.09 1.4 0.27c0.4 0.18 0.74 0.44 1.02 0.78l2.16-1.77c-0.28-0.35-0.59-0.64-0.94-0.88s-0.71-0.43-1.09-0.58c-0.38-0.14-0.76-0.25-1.15-0.32s-0.77-0.1-1.13-0.1c-1 0-1.92 0.16-2.76 0.47s-1.57 0.76-2.18 1.34-1.09 1.29-1.43 2.12c-0.19 0.45-0.32 0.93-0.41 1.44v-5.05h-2.81v12.76h2.81v-4.99c0.08 0.51 0.22 0.99 0.41 1.44 0.34 0.83 0.82 1.54 1.43 2.12s1.34 1.03 2.18 1.34 1.76 0.47 2.76 0.47c0.88 0 1.73-0.18 2.56-0.54 0.49-0.21 0.93-0.5 1.31-0.84 0.54 0.45 1.12 0.79 1.73 1.01 0.71 0.25 1.48 0.38 2.31 0.38 0.66 0 1.29-0.08 1.88-0.25s1.12-0.43 1.57-0.78 0.81-0.79 1.07-1.32 0.4-1.15 0.4-1.86c-0.01-0.75-0.15-1.34-0.44-1.79z"/>
</svg>