<?xml version="1.0" encoding="utf-8"?>
<!-- Generator: Adobe Illustrator 24.1.0, SVG Export Plug-In . SVG Version: 6.00 Build 0)  -->
<svg version="1.1" id="Layer_2" xmlns="http://www.w3.org/2000/svg" xmlns:xlink="http://www.w3.org/1999/xlink" x="0px" y="0px"
	 viewBox="0 0 120 90" style="enable-background:new 0 0 120 90;" xml:space="preserve">
<style type="text/css">
	.st0{fill:#00A19B;}
</style>
<g>
	<path class="st0" d="M45.46,52.29h29.75l7.44-12.88l-7.44-12.88l7.44-12.88H67.77v0l-7.44,12.88l7.44,12.88H52.9l7.44-12.88
		L52.9,13.65H38.02l7.44,12.88l-7.44,12.88L45.46,52.29z M61.78,26.53l5.99-10.38L81.2,39.41l-5.99,10.38L61.78,26.53z M46.18,25.27
		L40.19,14.9h11.98l-0.65,1.13L46.18,25.27z"/>
	<path class="st0" d="M26.43,65.08l-4.39,10.17h-4.4V65.08h-2.81h0H4.73v2.49h3.64v10.28h2.81V67.57h3.64v10.28h6.09h1.93h1.17
		l1.06-2.7h4.96l1.1,2.7h3.17l-5.55-12.76H26.43z M25.97,72.76l1.55-3.97l1.57,3.97H25.97z"/>
	<path class="st0" d="M43.97,72.87h2.29v2.07c-0.26,0.14-0.62,0.29-1.06,0.42c-0.44,0.14-0.97,0.21-1.59,0.21
		c-0.6,0-1.14-0.1-1.63-0.31c-0.49-0.2-0.9-0.49-1.25-0.86c-0.35-0.37-0.62-0.8-0.8-1.3c-0.19-0.5-0.28-1.05-0.28-1.65
		c0-0.59,0.09-1.14,0.28-1.64c0.19-0.5,0.45-0.94,0.8-1.31c0.35-0.37,0.77-0.65,1.25-0.86c0.49-0.2,1.03-0.31,1.63-0.31
		c0.72,0,1.32,0.1,1.8,0.31c0.48,0.2,0.91,0.5,1.3,0.9l1.98-2.16c-0.65-0.6-1.4-1.02-2.26-1.27c-0.86-0.25-1.8-0.37-2.82-0.37
		c-1,0-1.92,0.16-2.76,0.47c-0.84,0.31-1.57,0.76-2.18,1.34c-0.61,0.58-1.09,1.29-1.43,2.12c-0.34,0.83-0.51,1.75-0.51,2.78
		c0,1.02,0.17,1.95,0.51,2.78c0.34,0.83,0.82,1.54,1.43,2.12c0.61,0.58,1.34,1.03,2.18,1.34c0.84,0.31,1.76,0.47,2.76,0.47
		c0.94,0,1.86-0.1,2.76-0.29c0.9-0.19,1.77-0.5,2.6-0.94v-6.67h-4.99V72.87z"/>
	<path class="st0" d="M89.19,69.84h-5.46v-4.76h-2.81v2.45c-0.05-0.16-0.12-0.32-0.19-0.46c-0.26-0.5-0.61-0.9-1.05-1.19
		c-0.44-0.29-0.95-0.5-1.54-0.62c-0.59-0.12-1.21-0.18-1.87-0.18h-4.74V76.6l-5.01-11.52h-2.33L59.2,76.61l-2.5-4.15
		c0.9-0.17,1.59-0.57,2.05-1.2c0.47-0.63,0.7-1.4,0.7-2.3c0-0.75-0.13-1.37-0.39-1.87c-0.26-0.5-0.61-0.9-1.05-1.19
		c-0.44-0.29-0.95-0.5-1.53-0.63c-0.58-0.13-1.2-0.19-1.85-0.19h-4.94v12.76h2.81v-5.1h1.39l2.67,5.1h2.09h1.28h1.82l1.06-2.7h4.96
		l1.1,2.7h2.63h0.54h2.27v-4.98h2.06c0.67,0,1.3-0.06,1.87-0.19c0.58-0.13,1.08-0.34,1.5-0.64c0.42-0.3,0.75-0.7,0.99-1.21
		c0.06-0.13,0.12-0.27,0.16-0.42v7.43h2.81v-5.52h5.46v5.52H92V65.08h-2.81V69.84z M56.31,69.75c-0.15,0.19-0.34,0.33-0.57,0.42
		c-0.23,0.09-0.48,0.14-0.77,0.16c-0.28,0.02-0.55,0.03-0.8,0.03h-1.66v-2.9h1.84c0.25,0,0.51,0.02,0.78,0.05
		c0.26,0.04,0.5,0.11,0.7,0.21c0.2,0.1,0.37,0.25,0.5,0.44c0.13,0.19,0.2,0.45,0.2,0.78C56.54,69.29,56.46,69.56,56.31,69.75z
		 M63.71,72.76l1.55-3.97l1.57,3.97H63.71z M78.02,69.7c-0.11,0.2-0.26,0.35-0.45,0.47c-0.19,0.11-0.4,0.2-0.63,0.24
		c-0.23,0.05-0.48,0.07-0.73,0.07h-1.87v-3.03h1.44c0.26,0,0.54,0.02,0.83,0.05c0.29,0.03,0.55,0.1,0.78,0.21
		c0.23,0.11,0.43,0.26,0.58,0.46c0.15,0.2,0.23,0.46,0.23,0.78C78.19,69.26,78.13,69.51,78.02,69.7z"/>
	<path class="st0" d="M114.84,72.18c-0.29-0.44-0.65-0.8-1.09-1.06c-0.44-0.26-0.91-0.47-1.42-0.61c-0.5-0.14-0.98-0.29-1.41-0.43
		c-0.44-0.14-0.8-0.32-1.09-0.52c-0.29-0.2-0.43-0.5-0.43-0.88c0-0.24,0.06-0.44,0.18-0.61c0.12-0.17,0.28-0.3,0.47-0.41
		c0.19-0.1,0.4-0.18,0.61-0.23c0.22-0.05,0.43-0.07,0.63-0.07c0.35,0,0.72,0.07,1.11,0.21c0.39,0.14,0.7,0.35,0.93,0.64l1.93-2.11
		c-0.54-0.48-1.15-0.82-1.82-1.03c-0.67-0.2-1.37-0.31-2.09-0.31c-0.62,0-1.23,0.09-1.82,0.26c-0.59,0.17-1.11,0.44-1.56,0.78
		c-0.45,0.35-0.81,0.78-1.08,1.3c-0.27,0.52-0.41,1.12-0.41,1.8c0,0.71,0.15,1.28,0.44,1.71c0.29,0.43,0.66,0.78,1.11,1.05
		c0.44,0.26,0.93,0.47,1.44,0.63c0.52,0.16,1,0.31,1.44,0.47c0.44,0.16,0.81,0.35,1.11,0.57c0.29,0.22,0.44,0.53,0.44,0.91
		c0,0.23-0.06,0.43-0.17,0.59c-0.11,0.17-0.26,0.31-0.45,0.41c-0.19,0.11-0.4,0.19-0.63,0.24c-0.23,0.05-0.47,0.08-0.69,0.08
		c-0.47,0-0.92-0.11-1.36-0.32c-0.44-0.21-0.8-0.51-1.09-0.89l-1.27,1.39l-2.08-1.56c-0.29,0.43-0.66,0.77-1.1,1.01
		c-0.44,0.24-0.96,0.36-1.53,0.36c-0.5,0-0.98-0.1-1.42-0.31c-0.44-0.2-0.82-0.49-1.14-0.86c-0.32-0.37-0.58-0.8-0.77-1.3
		c-0.19-0.5-0.28-1.05-0.28-1.65c0-0.59,0.09-1.14,0.28-1.64c0.19-0.5,0.44-0.94,0.78-1.31c0.33-0.37,0.72-0.65,1.17-0.86
		c0.45-0.2,0.94-0.31,1.47-0.31c0.53,0,0.99,0.09,1.4,0.27c0.4,0.18,0.74,0.44,1.02,0.78l2.16-1.77c-0.28-0.35-0.59-0.64-0.94-0.88
		c-0.35-0.24-0.71-0.43-1.09-0.58c-0.38-0.14-0.76-0.25-1.15-0.32c-0.39-0.07-0.77-0.1-1.13-0.1c-1,0-1.92,0.16-2.76,0.47
		c-0.84,0.31-1.57,0.76-2.18,1.34c-0.61,0.58-1.09,1.29-1.43,2.12c-0.19,0.45-0.32,0.93-0.41,1.44v-5.05h-2.81v12.76h2.81V72.8
		c0.08,0.51,0.22,0.99,0.41,1.44c0.34,0.83,0.82,1.54,1.43,2.12c0.61,0.58,1.34,1.03,2.18,1.34c0.84,0.31,1.76,0.47,2.76,0.47
		c0.88,0,1.73-0.18,2.56-0.54c0.49-0.21,0.93-0.5,1.31-0.84c0.54,0.45,1.12,0.79,1.73,1.01c0.71,0.25,1.48,0.38,2.31,0.38
		c0.66,0,1.29-0.08,1.88-0.25c0.59-0.17,1.12-0.43,1.57-0.78c0.45-0.35,0.81-0.79,1.07-1.32c0.26-0.53,0.4-1.15,0.4-1.86
		C115.27,73.22,115.13,72.63,114.84,72.18z"/>
</g>
</svg>
